<?xml version="1.0" standalone="no"?>
<!DOCTYPE svg PUBLIC "-//W3C//DTD SVG 20010904//EN"
 "http://www.w3.org/TR/2001/REC-SVG-20010904/DTD/svg10.dtd">
<svg version="1.0" xmlns="http://www.w3.org/2000/svg"
 width="225.000000pt" height="225.000000pt" viewBox="0 0 225.000000 225.000000"
 preserveAspectRatio="xMidYMid meet">
<metadata>
Created by potrace 1.10, written by Peter Selinger 2001-2011
</metadata>
<g transform="translate(0.000000,225.000000) scale(0.050000,-0.050000)"
fill="#721d1d" stroke="none">
<path d="M1980 4467 c-1304 -196 -2151 -1346 -1929 -2619 28 -160 28 -179 0
-200 -60 -44 61 -359 147 -382 39 -10 226 -336 306 -532 72 -177 78 -184 150
-159 52 18 72 9 238 -116 246 -185 526 -322 788 -385 224 -53 520 -83 520 -52
0 23 66 24 91 0 28 -26 376 9 556 56 303 80 655 274 887 489 l114 107 118 -48
c179 -73 176 -76 359 479 166 503 173 535 122 535 -35 0 -35 -13 12 280 231
1432 -1061 2760 -2479 2547z m620 -298 c748 -116 1476 -858 1569 -1599 7 -55
18 -118 23 -140 10 -39 1 -40 -566 -35 l-575 6 -32 96 c-252 772 -1416 745
-1572 -37 l-12 -60 -570 0 -570 0 14 115 c128 1056 1191 1824 2291 1654z
m-129 -1412 c345 -160 431 -604 171 -878 -82 -86 -99 -95 -157 -85 -89 15 -82
31 36 87 132 61 142 125 34 215 -20 17 -26 54 -19 132 24 292 -332 431 -514
200 -125 -159 -36 -415 159 -458 l63 -14 -66 -69 c-59 -60 -64 -73 -42 -108
55 -89 -35 -66 -155 39 -65 56 -135 102 -156 102 -63 0 -135 180 -135 339 2
402 416 667 781 498z m20 -666 c-6 -68 -2 -114 12 -123 12 -7 -22 -38 -80 -72
-119 -69 -169 -58 -100 21 26 28 34 42 17 30 -139 -98 -101 34 47 163 56 50
105 90 108 90 3 0 1 -49 -4 -109z m-1032 -83 c19 -54 41 -113 49 -131 12 -26
-5 -37 -85 -56 -154 -37 -168 -54 -152 -177 12 -91 19 -103 52 -93 25 8 37 2
37 -20 0 -22 -21 -31 -75 -32 -41 0 -97 -13 -125 -29 -70 -40 -71 -40 -64 55
19 271 -375 427 -720 286 -39 -17 -76 88 -76 219 l0 80 562 -2 562 -1 35 -99z
m2746 50 c-29 -271 -79 -411 -122 -344 -19 30 -382 111 -436 97 -42 -11 -47
-23 -47 -126 0 -107 -3 -115 -48 -118 -26 -1 -73 -15 -105 -30 l-57 -28 -30
190 -30 191 -148 0 c-127 0 -151 -6 -170 -40 -12 -22 -31 -47 -42 -55 -11 -8
-5 -15 15 -15 19 0 35 -10 35 -21 0 -12 -7 -17 -16 -11 -9 5 -8 -52 3 -128 23
-175 64 -171 84 9 18 174 110 244 137 105 5 -24 20 -101 34 -170 15 -82 30
-117 41 -100 9 14 17 20 17 12 0 -8 -27 -57 -60 -109 -68 -107 -84 -259 -30
-280 35 -13 170 -144 170 -165 0 -19 -166 -1 -190 21 -11 10 -29 86 -40 168
-16 120 -55 206 -61 134 -1 -8 -12 -49 -24 -91 -12 -41 -18 -99 -13 -128 9
-46 6 -49 -21 -27 -34 28 -42 94 -13 104 25 9 -67 223 -99 234 -17 6 -21 -3
-13 -24 7 -18 4 -33 -6 -33 -10 0 -17 -47 -14 -105 l4 -105 -100 7 c-55 4
-102 9 -104 11 -17 15 45 187 78 216 40 35 41 38 8 62 -32 23 -33 39 -14 144
12 64 21 140 20 169 l-1 51 -21 -57 c-14 -39 -26 -50 -36 -33 -11 17 -27 2
-50 -47 -19 -40 -41 -73 -49 -73 -34 0 -37 28 -7 73 25 38 27 54 8 73 -19 19
-22 17 -13 -7 7 -18 -15 -57 -59 -100 -213 -210 -239 -294 -48 -158 56 40 138
23 138 -29 0 -10 -16 -3 -37 15 -51 47 -77 41 -33 -7 23 -25 51 -36 73 -29 54
17 45 -22 -14 -69 -171 -134 -460 -114 -539 37 -73 142 -15 306 134 378 85 41
259 63 199 25 -20 -12 -9 -23 38 -39 76 -27 108 -13 37 15 -43 18 -44 20 -7
21 23 0 51 11 63 23 17 17 38 12 83 -20 76 -54 74 -55 80 31 7 104 17 113 125
102 l96 -9 39 102 c22 56 44 118 51 138 10 33 49 35 587 28 l575 -7 -5 -49z
m-2449 -204 c5 -36 -7 -60 -35 -78 -22 -14 -41 -37 -41 -51 0 -14 -9 -25 -20
-25 -11 0 -20 -40 -20 -90 0 -87 24 -120 46 -62 6 15 45 75 85 131 l75 104 86
-85 87 -85 -122 -128 c-132 -137 -132 -142 3 -194 49 -19 117 -63 151 -98 70
-71 189 -125 190 -86 0 13 10 5 23 -16 22 -39 23 -39 38 0 10 26 15 6 15 -61
0 -55 -5 -89 -10 -75 -6 14 -17 21 -26 16 -8 -6 -137 52 -286 127 -312 158
-315 158 -315 -42 0 -95 -8 -136 -25 -138 -14 0 -40 -4 -58 -7 -49 -10 -62 92
-24 183 40 95 26 233 -29 292 -23 24 -42 51 -43 59 0 8 -1 66 -1 127 0 103 -4
112 -40 102 -28 -7 -40 0 -40 24 0 20 17 35 42 37 23 1 57 16 75 31 18 16 47
34 63 40 20 7 15 11 -15 12 -33 2 -70 40 -40 42 3 0 41 14 85 29 100 36 118
31 126 -35z m-1448 -117 c-37 -43 -37 -44 2 -28 164 62 478 33 579 -54 172
-149 113 -364 -146 -528 -4 -2 0 -34 8 -71 12 -55 17 -60 29 -27 11 33 76
-156 88 -256 1 -10 -34 -30 -78 -46 -87 -31 -130 -5 -130 77 0 20 -9 36 -20
36 -11 0 -20 12 -20 27 0 16 -43 121 -97 235 -53 115 -111 242 -130 284 -29
67 -37 73 -75 53 -23 -12 -44 -19 -47 -16 -3 4 -30 50 -60 102 -60 103 -82
121 -64 50 11 -43 10 -44 -18 -6 -47 62 -34 106 46 160 99 68 190 73 133 8z
m3472 -37 c0 -11 37 -25 81 -33 114 -18 126 -36 167 -255 42 -224 69 -237 106
-51 47 233 50 259 28 259 -12 0 -22 18 -22 40 0 47 46 52 163 17 80 -24 103
-56 42 -58 -27 -1 -24 -6 10 -20 25 -10 45 -23 45 -30 0 -8 -12 -8 -28 -3 -19
8 -24 0 -18 -26 5 -20 -4 -66 -21 -103 -33 -75 -193 -546 -204 -603 -20 -101
-28 -109 -95 -96 l-64 14 0 264 c0 167 -7 261 -20 257 -11 -4 -20 -31 -19 -60
0 -29 -8 -53 -18 -53 -10 0 -13 -27 -6 -61 8 -40 5 -57 -9 -48 -13 9 -17 -18
-10 -79 10 -85 8 -92 -33 -93 -37 0 -34 -5 20 -29 66 -28 92 -111 45 -140 -12
-7 -20 12 -20 46 0 53 -6 59 -65 59 -163 0 -175 3 -175 50 1 60 39 123 40 65
1 -58 39 5 40 65 0 25 9 45 21 45 90 0 137 304 63 416 -18 28 -30 79 -27 117
5 50 -2 67 -25 67 -19 0 -32 17 -32 40 0 22 9 40 20 40 11 0 20 -9 20 -20z
m-34 -256 c29 -30 58 -87 64 -125 l10 -69 -22 70 c-28 89 -53 120 -128 152
-48 21 -51 27 -19 27 23 1 66 -24 95 -55z m-51 -15 c93 -62 111 -204 39 -311
-95 -141 -335 -152 -404 -18 -119 231 148 471 365 329z m-1689 -9 c7 -29 0
-40 -25 -40 -49 0 -64 22 -38 53 31 38 51 34 63 -13z m-563 -21 l47 -41 -54
32 c-30 19 -70 29 -90 24 -29 -7 -27 -10 8 -12 25 -1 65 -29 89 -61 24 -33 52
-54 61 -48 20 12 5 -103 -27 -208 -55 -179 -343 -227 -438 -73 -85 138 -22
320 131 377 163 60 213 62 273 10z m-1072 -58 c-6 -10 -2 -24 9 -31 41 -25 83
-155 58 -179 -18 -15 -20 -14 -9 5 8 15 2 42 -13 60 -39 47 -76 138 -61 152
18 19 29 14 16 -7z m632 -334 c12 -15 12 -28 0 -35 -26 -16 -71 100 -50 132
12 19 19 12 24 -24 4 -27 15 -60 26 -73z m1557 52 c-21 -71 -27 -68 179 -96
100 -14 157 -14 174 -1 17 14 29 10 43 -14 12 -21 32 -29 52 -22 24 10 32 1
32 -35 0 -56 10 -60 235 -93 180 -27 213 -17 214 66 1 30 18 48 57 58 125 34
65 -113 -96 -237 -494 -380 -1194 -503 -1790 -314 -342 109 -699 339 -741 479
-13 44 -30 85 -38 90 -25 17 -42 117 -22 129 10 7 25 -18 32 -55 36 -196 280
-283 461 -165 62 41 68 40 68 -20 0 -51 1 -52 115 -38 249 30 263 40 250 158
-13 112 -38 115 271 -38 325 -161 344 -159 344 28 0 135 0 135 65 156 107 34
114 32 95 -36z m-1611 -338 c16 -26 -56 -62 -140 -70 -96 -9 -103 19 -14 56
87 36 138 41 154 14z"/>
<path d="M3261 3655 c176 -217 309 -534 372 -888 35 -197 67 -246 67 -102 -1
328 -229 851 -467 1070 -87 80 -75 48 28 -80z"/>
<path d="M2275 1580 c-72 -57 -84 -220 -16 -220 43 0 209 223 180 241 -47 30
-110 22 -164 -21z"/>
<path d="M681 1538 c-27 -11 -53 -23 -57 -27 -10 -11 84 -291 98 -291 33 0
158 165 158 209 0 89 -104 147 -199 109z m119 -149 c0 -69 -32 -61 -58 14 -29
82 -29 82 18 57 23 -13 40 -42 40 -71z"/>
<path d="M3505 1439 c-25 -10 -60 -49 -78 -87 -70 -146 80 -231 211 -120 59
49 87 148 42 148 -11 0 -20 -13 -20 -28 0 -38 -40 -50 -95 -30 -54 20 -59 73
-10 110 40 31 16 34 -50 7z"/>
<path d="M1178 1318 c-84 -90 -58 -177 62 -207 48 -13 49 -12 11 18 -42 33
-26 38 39 12 55 -23 130 48 130 122 0 32 -9 57 -20 57 -11 0 -20 -19 -20 -41
0 -33 -11 -40 -53 -35 -76 9 -109 70 -58 107 36 27 36 29 3 29 -20 0 -62 -28
-94 -62z"/>
<path d="M2990 605 l-100 -90 94 63 c90 60 128 97 113 111 -4 4 -52 -34 -107
-84z"/>
</g>
</svg>
